<?xml version="1.0" standalone="no"?>
<!DOCTYPE svg PUBLIC "-//W3C//DTD SVG 20010904//EN"
 "http://www.w3.org/TR/2001/REC-SVG-20010904/DTD/svg10.dtd">
<svg version="1.0" xmlns="http://www.w3.org/2000/svg"
 width="3840.000000pt" height="3072.000000pt" viewBox="0 0 3840.000000 3072.000000"
 preserveAspectRatio="xMidYMid meet">
<metadata>
Created by potrace 1.16, written by Peter Selinger 2001-2019
</metadata>
<g transform="translate(0.000000,3072.000000) scale(0.100000,-0.100000)"
fill="#000000" stroke="none">
<path d="M17700 28579 c-169 -4 -368 -14 -445 -23 -77 -9 -275 -32 -440 -52
-889 -103 -1539 -251 -2490 -569 -408 -136 -531 -183 -955 -362 -696 -295
-1591 -814 -2155 -1251 -38 -30 -194 -147 -345 -260 -549 -411 -905 -739
-1391 -1282 -435 -487 -646 -763 -972 -1272 -536 -836 -1004 -1751 -1267
-2478 -187 -517 -279 -843 -400 -1405 -98 -457 -151 -850 -200 -1470 -20 -252
-28 -695 -19 -1062 12 -524 44 -926 110 -1373 20 -142 30 -201 104 -652 40
-249 64 -426 65 -483 0 -17 7 -21 38 -23 53 -4 650 -70 692 -77 30 -6 33 -5
18 7 -16 12 -48 135 -148 558 -109 462 -180 1023 -204 1606 -40 945 -36 1043
84 2124 37 333 117 794 186 1080 84 342 374 1201 495 1468 16 35 29 66 29 68
0 14 147 325 238 504 176 346 323 608 447 796 22 34 67 105 100 158 33 53 80
126 105 161 25 35 79 113 120 172 65 94 154 216 272 372 18 24 47 63 63 86 43
61 230 306 252 330 10 11 57 65 104 120 87 100 484 504 719 730 69 66 197 182
285 256 88 75 189 161 225 191 36 31 64 61 62 68 -1 6 2 9 8 5 14 -9 42 14 33
28 -3 5 -2 7 4 4 12 -8 249 180 245 194 -1 6 2 8 8 4 14 -8 81 45 73 58 -3 6
-1 7 6 3 6 -4 52 23 109 65 89 66 448 307 602 406 355 226 1144 652 1470 793
307 134 1014 389 1375 497 339 101 784 203 1252 287 750 135 913 150 1693 150
570 1 650 -3 1000 -45 691 -83 1471 -229 1890 -353 25 -8 88 -26 140 -41 178
-52 475 -154 695 -239 378 -148 535 -211 636 -258 121 -56 318 -159 409 -213
30 -18 156 -88 280 -156 185 -101 441 -247 595 -340 16 -10 44 -26 60 -35 17
-9 149 -95 295 -192 373 -246 383 -253 505 -342 61 -44 121 -88 135 -97 13
-10 38 -30 55 -44 16 -14 59 -47 95 -74 36 -27 81 -62 101 -79 37 -33 84 -72
211 -177 272 -227 717 -674 984 -989 49 -58 95 -111 102 -119 71 -73 465 -590
668 -876 83 -117 266 -429 548 -935 106 -191 295 -601 393 -855 19 -49 45
-117 58 -150 192 -495 343 -959 440 -1345 14 -58 32 -130 40 -160 8 -30 30
-116 49 -190 112 -440 211 -1083 261 -1705 57 -721 43 -1467 -41 -2015 -27
-181 -74 -462 -89 -535 -52 -254 -170 -768 -220 -954 -19 -74 -33 -136 -31
-138 4 -5 658 27 663 31 8 7 152 662 202 916 82 420 129 741 168 1150 25 265
25 1122 0 1465 -62 841 -171 1552 -342 2237 -120 480 -333 1141 -500 1553
-321 792 -588 1295 -1068 2015 -140 210 -261 375 -451 618 -83 106 -171 219
-195 250 -72 95 -434 519 -547 642 -290 315 -644 644 -988 917 -50 40 -127
102 -171 137 -243 193 -563 422 -792 566 -532 335 -644 398 -1163 659 -810
407 -1054 508 -1710 711 -626 193 -705 214 -1088 295 -509 107 -1184 209
-1482 224 -281 14 -709 19 -1060 10z m3991 -728 c321 -108 353 -121 524 -201
44 -20 103 -45 130 -55 28 -11 100 -47 160 -80 61 -34 133 -73 161 -87 51 -27
142 -76 186 -100 13 -7 30 -18 38 -24 8 -7 35 -19 60 -27 60 -21 183 -82 245
-122 28 -18 67 -38 88 -45 37 -12 51 -30 22 -30 -8 0 -15 5 -15 10 0 6 -15 10
-32 10 -44 0 -78 10 -78 22 0 6 7 7 16 4 14 -5 15 -4 4 9 -7 8 -19 15 -26 15
-8 0 -14 4 -14 9 0 18 -124 70 -142 60 -17 -9 -68 7 -68 21 0 3 -16 12 -35 19
-21 7 -33 17 -29 23 5 8 1 9 -10 5 -11 -4 -15 -3 -10 4 4 8 -1 9 -17 4 -17 -4
-20 -3 -10 3 20 14 -26 41 -204 123 -27 13 -54 27 -60 31 -37 30 -155 98 -170
98 -3 0 -3 -4 0 -10 3 -6 -1 -7 -10 -3 -11 4 -13 8 -6 13 12 7 -29 30 -54 30
-14 0 -90 35 -202 93 -29 16 -59 25 -70 21 -15 -5 -16 -4 -3 6 12 9 9 10 -15
6 -24 -5 -27 -4 -15 5 12 9 11 10 -7 6 -13 -3 -23 -1 -23 3 0 5 -13 11 -30 15
-16 3 -48 15 -71 26 -22 11 -47 18 -55 15 -7 -3 -29 1 -48 9 -19 8 -36 11 -38
7 -2 -5 -14 -2 -28 5 -14 7 -19 13 -12 13 6 0 12 5 12 11 0 7 -10 9 -26 5 -18
-5 -24 -3 -18 5 4 8 3 9 -4 5 -14 -8 -64 3 -57 14 3 4 -2 11 -11 14 -10 4 -13
2 -8 -6 6 -9 -34 14 -65 39 -11 8 16 0 150 -46z"/>
<path d="M17191 26579 c-63 -16 -207 -68 -320 -115 -113 -47 -269 -112 -346
-144 -241 -100 -501 -213 -765 -335 -252 -116 -639 -287 -795 -350 -80 -34
-187 -80 -825 -357 -190 -83 -417 -182 -505 -220 -304 -131 -441 -191 -600
-263 -88 -40 -230 -102 -315 -138 -408 -172 -497 -210 -650 -282 -91 -43 -262
-119 -380 -170 -522 -224 -545 -253 -270 -343 52 -18 160 -49 240 -71 80 -21
226 -62 325 -89 99 -28 347 -94 550 -147 204 -53 471 -122 595 -155 124 -32
288 -75 365 -95 77 -20 214 -56 305 -80 91 -24 309 -80 485 -125 337 -86 848
-222 1275 -340 235 -65 516 -139 1345 -350 529 -135 949 -226 994 -215 13 3
94 39 180 79 86 41 179 84 206 96 202 91 505 235 635 302 281 146 842 439
1015 531 225 119 1176 589 1240 612 l50 19 -30 7 c-16 4 -73 17 -125 29 -115
25 -560 161 -920 281 -298 99 -651 208 -970 299 -118 34 -273 79 -345 100
-138 41 -262 75 -517 140 l-157 41 -61 -50 c-158 -127 -296 -161 -485 -119
-134 29 -289 148 -346 263 -64 131 -37 257 81 375 113 113 277 167 475 156
200 -11 340 -76 436 -203 43 -58 57 -88 67 -147 6 -29 12 -40 27 -41 11 -1
265 -79 565 -173 300 -94 613 -192 695 -217 83 -25 335 -106 560 -180 226 -73
545 -177 710 -230 165 -53 367 -122 449 -152 130 -49 153 -55 178 -45 16 6
113 58 216 116 597 334 1345 717 1657 846 142 59 240 109 265 135 18 19 22 31
17 61 -9 54 -30 79 -89 107 -66 32 -455 129 -783 197 -137 28 -423 89 -635
135 -444 97 -1014 214 -1351 279 -794 152 -2489 516 -2846 611 -54 14 -147 39
-208 55 -132 35 -355 86 -410 93 -27 4 -77 -4 -154 -24z"/>
<path d="M19900 24356 c0 -2 30 -14 68 -27 37 -12 76 -28 87 -35 11 -7 74 -29
140 -49 66 -20 228 -72 360 -115 247 -81 388 -123 440 -134 46 -9 3 8 -85 34
-41 12 -160 50 -265 85 -104 35 -262 86 -350 114 -88 27 -200 65 -250 84 -93
35 -145 51 -145 43z"/>
<path d="M11300 23771 c0 -6 17 -18 38 -27 66 -28 410 -142 677 -224 407 -126
418 -129 460 -136 22 -4 45 -10 50 -14 6 -5 39 -14 75 -20 36 -7 71 -17 77
-23 7 -5 22 -7 34 -4 12 3 18 3 14 -1 -7 -8 -4 -9 400 -113 624 -160 746 -190
757 -187 6 2 -63 23 -153 46 -333 85 -839 222 -992 267 -87 26 -165 44 -173
41 -8 -3 -13 -2 -10 2 3 5 -79 32 -182 62 -250 71 -284 81 -522 157 -186 58
-488 160 -532 178 -11 4 -18 3 -18 -4z"/>
<path d="M21075 23572 c-179 -107 -309 -175 -460 -241 -275 -119 -389 -177
-795 -404 -468 -260 -609 -339 -790 -440 -241 -134 -532 -280 -750 -376 -136
-60 -299 -142 -328 -164 -7 -6 -37 -7 -70 -4 -75 8 -404 84 -667 154 -234 62
-333 87 -775 198 -392 98 -496 127 -1074 296 -263 77 -537 156 -610 175 -111
28 -316 74 -333 74 -8 0 5 -167 28 -360 54 -462 161 -1108 279 -1687 70 -343
110 -466 173 -533 188 -200 908 -462 1512 -550 421 -61 940 -57 1427 10 671
94 1443 386 2193 833 318 189 451 284 598 426 159 154 217 245 307 484 l57
152 289 5 c282 5 289 5 286 25 -2 11 1 16 5 10 4 -5 16 -16 26 -24 15 -12 17
-11 17 6 0 11 -11 23 -30 30 l-29 11 -3 163 c-2 90 -2 205 0 255 3 78 6 92 24
103 17 10 23 10 39 -5 15 -14 21 -14 34 -4 16 14 16 14 19 -48 2 -51 -10 -65
-19 -22 -11 50 -28 48 -24 -4 2 -25 1 -46 -3 -46 -14 0 -8 -48 6 -53 10 -4 17
4 21 24 4 16 11 29 17 29 6 0 8 -9 5 -20 -3 -11 -2 -22 3 -25 12 -8 19 21 14
57 -3 18 -2 56 3 85 7 43 11 51 23 43 12 -7 12 -12 2 -22 -7 -7 -11 -34 -10
-63 l1 -50 7 45 c6 42 14 -163 15 -402 0 -51 4 -86 11 -90 7 -4 405 -8 886 -8
l875 0 6 -2173 c4 -1194 10 -2626 14 -3182 l6 -1010 -1689 -1 c-929 -1 -3496
-3 -5705 -5 l-4016 -4 -6 1060 c-5 913 1 5296 7 5302 1 2 539 3 1194 3 713 0
1193 4 1197 10 3 5 1 28 -4 52 -14 60 -80 509 -81 546 0 10 -234 12 -1237 10
l-1238 -3 -63 -24 c-112 -41 -218 -136 -301 -268 -71 -114 -65 235 -69 -3654
-3 -3050 -1 -3511 11 -3548 15 -41 14 -43 -11 -67 -15 -14 -70 -56 -123 -94
-143 -103 -759 -597 -759 -609 0 -8 13 -11 500 -135 184 -46 416 -101 514
-121 182 -37 243 -39 243 -10 0 13 -2 13 -17 0 -9 -8 -22 -15 -29 -15 -15 0
32 41 134 115 198 144 318 255 515 475 57 63 131 139 164 169 34 29 71 64 84
77 23 24 52 32 52 15 0 -5 -7 -14 -15 -21 -21 -18 -9 -30 28 -29 l32 2 -35 7
-35 7 30 2 c17 1 326 4 688 7 457 3 657 2 652 -6 -3 -5 -19 -10 -36 -10 -16 0
-29 -4 -29 -10 0 -13 -439 -14 -472 -1 -21 8 -269 3 -728 -14 l-135 -5 -129
-137 c-71 -76 -170 -181 -219 -233 -49 -52 -129 -126 -177 -165 -48 -38 -129
-105 -179 -147 -51 -43 -109 -85 -128 -95 -34 -16 -35 -17 -13 -25 37 -14 439
-106 510 -118 111 -17 110 -17 110 40 0 49 1 50 30 50 44 0 107 -28 133 -59
l22 -28 2885 8 c1587 4 3247 12 3690 19 1461 19 2623 28 3518 26 l884 -3 -32
25 c-17 13 -91 99 -165 191 -199 247 -194 242 -245 251 -25 5 -220 10 -435 11
-214 1 -478 4 -585 8 -107 3 -555 3 -995 -1 -440 -3 -801 -5 -802 -4 -1 1 -7
35 -14 76 -6 41 -16 78 -23 82 -22 14 11 31 46 24 24 -4 34 -12 35 -26 2 -23
-15 -27 -23 -6 -3 8 -11 17 -18 19 -10 4 -11 -6 -5 -41 4 -26 8 -52 8 -58 2
-22 37 -26 228 -24 105 0 194 -3 197 -8 7 -12 64 -13 71 -2 3 6 160 9 362 9
282 0 358 3 365 13 6 10 10 10 16 1 8 -12 326 -35 456 -32 77 2 78 2 92 33 7
17 13 24 14 15 0 -11 12 -18 38 -23 45 -7 956 -8 964 -1 3 3 -74 85 -170 183
l-176 177 -500 7 c-276 4 -1403 7 -2506 7 -1103 -1 -2009 0 -2015 1 -5 0 -68
1 -140 0 -71 0 -143 4 -160 8 -46 13 3021 26 4015 17 476 -5 962 -7 1080 -6
l215 3 216 -219 c119 -120 247 -254 284 -298 38 -44 91 -105 119 -135 69 -75
102 -113 165 -190 59 -73 73 -86 183 -171 42 -32 85 -59 95 -59 10 0 92 18
183 41 143 34 471 108 982 219 205 45 198 35 77 115 -57 37 -160 111 -229 165
-160 124 -414 314 -555 415 -199 142 -245 178 -244 189 5 69 -14 6768 -20
6981 l-8 290 -28 60 c-55 115 -185 216 -336 259 -173 49 -642 65 -2031 66
l-746 0 -21 90 c-23 96 -120 686 -146 883 -23 178 -23 179 28 205 75 38 191
104 235 133 24 16 49 29 56 29 8 0 16 7 20 15 3 8 4 15 3 15 -1 0 -38 -22 -82
-48z m-5075 -9067 c0 -13 -22 -15 -134 -15 -74 0 -141 -3 -150 -6 -11 -4 -16
-1 -16 10 0 13 -12 16 -59 16 -33 0 -62 -4 -66 -9 -7 -13 -805 -14 -805 -1 0
14 75 16 673 18 489 2 557 0 557 -13z m1491 1 c-10 -12 -128 -14 -720 -15
-389 -1 -715 1 -724 5 -9 3 -14 10 -11 15 3 5 317 9 736 9 623 0 729 -2 719
-14z m-165 -281 c-4 -12 3 -15 35 -15 34 0 41 -4 50 -27 5 -14 9 -33 7 -42 -5
-23 -23 -14 -26 12 -2 20 -11 26 -40 30 -20 4 -39 3 -42 -1 -3 -4 -25 -7 -50
-6 -285 4 -371 7 -405 13 -74 13 -1 20 214 20 172 0 206 2 220 15 20 20 45 21
37 1z m-3896 -10 c0 -2 -3 -10 -6 -19 -5 -14 -28 -16 -144 -16 -82 0 -141 4
-145 10 -3 6 -57 10 -123 11 -64 0 -139 4 -167 7 -27 4 93 8 268 9 174 1 317
0 317 -2z m3373 -22 c-8 -3 -11 -14 -7 -29 4 -15 2 -24 -6 -24 -6 0 -10 -11
-8 -27 2 -16 8 -27 15 -26 10 2 34 -24 56 -63 5 -8 -4 -11 -26 -10 -27 1 -32
-3 -35 -25 -3 -23 -7 -25 -51 -25 -39 0 -50 4 -57 20 -8 20 -17 21 -119 20
l-110 -2 105 8 c156 11 178 17 196 52 8 16 15 46 14 66 -3 66 -1 72 23 71 12
0 16 -3 10 -6z m3355 -106 c2 -8 -1 -18 -6 -21 -13 -8 -338 -19 -330 -11 4 4
3 18 -3 32 l-9 24 173 -4 c142 -4 173 -8 175 -20z m-5513 -81 c50 2 128 0 175
-4 l85 -7 -60 -6 c-33 -4 -164 -7 -291 -8 l-232 -1 -8 -27 c-4 -16 -8 -41 -10
-58 -1 -16 -10 -43 -18 -60 -9 -16 -21 -54 -27 -82 -7 -29 -15 -53 -19 -53
-22 0 -18 116 4 135 7 6 21 38 32 71 l20 62 -62 5 c-62 6 -868 2 -1556 -8
-218 -3 -358 -1 -358 4 0 28 53 30 1070 37 525 3 956 7 957 8 1 0 48 -2 105
-5 57 -3 144 -5 193 -3z m536 4 c168 0 189 -2 189 -16 0 -15 -16 -16 -157 -11
-87 3 -175 8 -196 10 -34 5 -39 2 -54 -26 -9 -18 -42 -108 -73 -200 -32 -92
-61 -171 -65 -175 -3 -4 -11 2 -17 12 -8 15 -12 16 -19 5 -21 -33 -7 21 30
116 126 327 111 298 144 291 16 -3 114 -6 218 -6z m724 2 c35 -5 50 -12 50
-22 0 -12 -21 -15 -120 -17 -66 -1 -146 -4 -177 -8 l-58 -6 0 31 0 30 128 -1
c70 0 150 -4 177 -7z m2725 -162 c0 -19 -7 -20 -190 -20 -183 0 -190 1 -190
20 0 19 7 20 190 20 183 0 190 -1 190 -20z m208 8 c9 -9 15 -9 24 0 8 8 64 12
185 12 147 0 173 -2 173 -15 0 -13 -24 -15 -152 -16 -84 0 -213 -2 -285 -5
-113 -4 -133 -2 -133 10 0 12 17 16 78 19 42 1 82 4 88 5 5 1 15 -3 22 -10z
m-600 -213 c-18 -19 -2218 -41 -2638 -27 -225 8 -198 9 335 12 319 1 825 6
1125 9 761 8 1183 11 1178 6z"/>
<path d="M6828 14088 c-157 -87 -286 -189 -703 -553 -119 -104 -244 -214 -278
-244 -67 -58 -130 -114 -367 -327 -392 -352 -490 -427 -594 -459 -10 -3 -17
-7 -15 -9 2 -1 130 1 284 6 606 21 2437 -18 3435 -72 342 -19 475 -28 955 -65
758 -59 996 -88 1570 -196 453 -84 616 -115 900 -170 558 -108 573 -112 865
-196 85 -24 218 -62 295 -84 308 -88 615 -183 871 -269 362 -123 393 -132 406
-124 6 4 8 3 5 -3 -3 -5 63 -32 151 -61 236 -78 342 -116 390 -141 24 -12 50
-20 58 -17 8 3 12 2 9 -4 -3 -5 27 -25 68 -45 71 -35 74 -35 109 -20 23 9 39
11 43 5 3 -6 16 -11 28 -11 17 -1 15 -3 -8 -8 l-30 -7 32 -8 c32 -7 55 -26 33
-26 -21 0 -71 31 -65 40 8 12 -25 13 -44 1 -10 -6 14 -23 86 -58 54 -28 120
-62 146 -77 25 -15 51 -25 57 -21 6 4 9 1 8 -5 -2 -6 39 -36 91 -66 72 -42 96
-52 102 -42 6 8 2 18 -8 26 -9 6 -13 12 -7 12 5 0 20 -9 34 -20 14 -11 18 -18
9 -15 -10 4 -19 0 -22 -9 -5 -11 12 -26 61 -53 119 -65 490 -305 660 -425 46
-32 88 -55 94 -52 6 4 8 3 5 -3 -4 -6 37 -42 94 -82 87 -61 104 -70 118 -59
14 11 14 11 4 -3 -10 -13 -4 -21 38 -53 37 -28 54 -35 62 -27 6 6 15 11 21 11
5 0 2 -6 -7 -13 -15 -11 -2 -23 112 -110 71 -53 132 -97 135 -97 3 0 14 -6 23
-14 10 -8 70 -56 133 -107 102 -81 170 -139 289 -244 18 -16 56 -53 84 -82 27
-29 53 -50 57 -48 4 3 7 -2 6 -9 0 -8 44 -61 100 -118 56 -57 138 -152 184
-213 45 -60 84 -112 87 -115 28 -25 -86 387 -164 595 -171 460 -587 1038
-1158 1611 -288 289 -453 430 -750 645 -153 110 -311 203 -328 193 -6 -4 -9
-4 -5 1 5 5 -1 14 -12 22 -29 20 -543 283 -554 283 -2 0 -46 20 -97 44 -246
116 -929 388 -929 370 0 -2 -10 2 -22 10 -13 8 -34 16 -48 18 -14 2 -31 7 -37
11 -23 14 -127 46 -135 41 -4 -3 -8 -1 -8 4 0 5 -8 12 -17 15 -309 90 -448
127 -459 123 -8 -3 -13 -2 -10 3 3 5 -22 16 -57 25 -111 29 -451 121 -517 140
-19 6 -21 5 -10 -3 18 -13 3 -13 -25 -1 -14 6 -15 9 -5 10 28 3 -95 33 -130
33 -26 -1 -30 1 -15 7 15 6 6 10 -40 21 -33 7 -64 14 -70 14 -5 0 -16 4 -22 8
-22 14 -950 264 -1008 272 -11 1 -27 5 -35 8 -51 21 -429 106 -840 191 -484
99 -772 148 -1385 235 -413 59 -538 79 -825 131 -367 67 -733 123 -1213 185
-109 14 -210 28 -225 31 -19 3 -49 -8 -104 -38z m4003 -657 c57 -16 129 -34
159 -41 30 -7 82 -21 115 -31 33 -10 76 -21 95 -24 19 -4 40 -11 45 -15 6 -4
31 -10 57 -13 41 -6 696 -164 773 -187 132 -40 247 -70 269 -70 14 0 26 -4 26
-9 0 -5 12 -11 28 -14 53 -9 357 -89 375 -99 10 -5 80 -25 155 -44 362 -93
576 -153 717 -202 33 -12 94 -32 135 -46 112 -37 320 -111 360 -129 19 -8 103
-36 185 -63 83 -26 175 -60 205 -75 30 -16 73 -35 95 -43 22 -7 96 -39 165
-71 175 -80 209 -95 215 -95 5 0 407 -201 465 -232 226 -124 596 -366 706
-463 20 -18 48 -40 74 -59 14 -10 17 -16 8 -13 -10 4 -20 2 -23 -3 -4 -6 -1
-10 6 -10 9 0 10 -3 3 -10 -12 -12 -44 -3 -44 11 0 5 -10 9 -23 9 -27 0 -55
19 -59 40 -4 19 -40 48 -77 61 -16 6 -46 26 -66 45 -20 19 -41 34 -46 34 -5 0
-9 6 -9 13 0 8 -16 22 -35 33 -19 10 -35 23 -35 27 0 5 -11 6 -25 3 -19 -5
-25 -2 -25 10 0 21 -30 44 -47 37 -21 -8 -15 -25 7 -18 14 5 20 2 20 -9 0 -9
-5 -16 -11 -16 -8 0 -10 -13 -6 -37 4 -21 3 -33 -1 -26 -4 6 -25 13 -47 15
-38 3 -40 5 -43 41 -2 22 1 37 8 37 7 0 8 6 1 19 -12 22 -3 35 15 20 7 -6 19
-9 26 -7 8 3 4 9 -11 17 -17 9 -26 10 -34 2 -6 -6 -23 -11 -38 -11 -15 0 -31
-4 -34 -10 -3 -5 -24 -10 -45 -10 -39 0 -39 1 -33 30 6 34 0 36 -51 15 -32
-14 -36 -14 -36 0 0 11 -11 15 -40 15 -29 0 -40 4 -40 15 0 11 -11 15 -40 15
-29 0 -40 -4 -40 -15 0 -12 -16 -15 -80 -15 -64 0 -80 3 -80 15 0 11 -11 15
-40 15 -38 0 -40 -2 -40 -30 0 -28 -2 -30 -40 -30 -29 0 -40 4 -40 15 0 11
-11 15 -40 15 -36 0 -40 -2 -40 -25 0 -22 -4 -25 -40 -25 -29 0 -40 -4 -40
-15 0 -8 7 -15 15 -15 11 0 15 -11 15 -40 0 -29 -4 -40 -15 -40 -11 0 -15 11
-15 40 l0 40 -40 0 c-35 0 -40 -3 -40 -24 0 -21 -5 -24 -61 -30 -34 -3 -88 -6
-120 -6 -33 0 -59 -4 -59 -10 0 -6 33 -10 80 -10 64 0 80 -3 80 -15 0 -12 -16
-15 -80 -15 l-80 0 0 -84 c0 -80 1 -84 21 -79 11 3 23 12 26 19 11 31 33 14
33 -25 0 -33 -4 -40 -24 -45 -14 -3 -32 -3 -42 1 -11 4 -15 3 -10 -5 3 -6 1
-14 -5 -18 -7 -4 -9 -3 -6 2 3 6 2 16 -3 24 -7 12 -12 12 -28 -3 -10 -9 -22
-17 -27 -17 -5 0 0 7 11 15 19 14 18 14 -3 10 -22 -4 -40 20 -23 30 6 4 10 18
10 32 0 21 -3 23 -14 13 -8 -6 -12 -18 -9 -26 12 -33 -78 -23 -120 14 -9 8
-20 12 -24 9 -3 -4 0 -7 7 -7 7 0 11 -3 8 -6 -4 -3 -20 1 -36 10 -40 21 -113
46 -134 46 -12 0 -15 5 -11 16 5 14 3 14 -17 2 -18 -10 -24 -10 -27 -1 -3 10
-10 10 -25 2 -15 -8 -19 -8 -14 0 6 10 -22 26 -59 35 -5 2 -17 6 -26 10 -9 4
-20 6 -25 5 -5 -1 -22 3 -37 9 -16 7 -44 13 -62 15 -18 1 -33 7 -32 12 1 6 -7
10 -18 10 -11 0 -22 3 -25 6 -8 10 -139 49 -169 50 -24 0 -24 1 -6 10 15 7 9
8 -20 4 -31 -5 -37 -3 -25 6 13 9 12 10 -3 5 -11 -3 -39 1 -63 9 -52 18 -98
21 -74 5 8 -5 10 -10 4 -10 -5 0 -19 7 -30 15 -16 13 -16 14 -1 9 9 -3 17 -1
17 5 0 5 -24 13 -52 17 -39 5 -48 9 -33 15 19 7 19 8 -1 8 -12 1 -38 8 -58 16
-20 8 -55 17 -79 20 -24 2 -92 18 -153 35 -60 18 -122 35 -139 40 -16 4 -55
17 -85 28 -30 12 -84 28 -120 36 -36 9 -94 24 -130 34 -36 10 -71 17 -78 14
-7 -2 -12 2 -12 8 0 9 -13 11 -42 7 -27 -4 -37 -2 -27 4 10 6 2 9 -26 9 -43 0
-167 24 -211 40 -14 6 -54 11 -88 12 -41 0 -55 3 -41 9 18 7 18 8 -5 9 -54 3
-106 11 -134 20 -16 6 -43 10 -60 11 -30 0 -30 1 -7 10 38 15 21 18 -37 6 -40
-9 -55 -8 -65 2 -10 10 -4 11 28 6 28 -5 36 -4 25 4 -8 5 -51 8 -100 6 -62 -3
-77 -2 -55 5 24 7 18 8 -27 5 -57 -5 -92 1 -83 15 2 4 -6 5 -19 3 -13 -3 -27
0 -30 6 -4 6 -28 11 -54 12 -51 1 -48 4 11 14 36 6 53 25 22 25 -8 0 -15 -4
-15 -8 0 -5 -7 -9 -16 -9 -15 0 -15 1 0 12 27 20 18 27 -24 20 -33 -6 -40 -4
-40 10 0 24 25 45 54 45 16 0 26 6 26 15 0 11 11 15 40 15 29 0 40 -4 40 -15
0 -11 11 -15 40 -15 29 0 40 4 40 15 0 9 -9 15 -21 15 -24 0 -58 37 -59 63 0
22 45 24 54 2 12 -33 26 -12 26 40 l0 55 55 0 55 0 0 40 0 40 -40 0 -40 0 0
40 c0 29 -4 40 -15 40 -12 0 -15 16 -15 80 0 47 4 80 10 80 6 0 10 33 10 80
l0 80 55 0 55 0 0 40 c0 41 7 46 50 40 12 -2 12 2 -3 17 -9 11 -17 29 -17 41
0 17 -9 23 -56 32 -46 10 -53 14 -43 26 9 11 7 14 -12 15 -52 3 -69 7 -82 18
-15 12 -47 19 -147 30 -54 7 -58 8 -25 10 l40 3 -50 14 c-27 8 -81 23 -120 33
-38 11 -104 29 -145 41 -41 11 -104 28 -140 36 -36 8 -72 17 -80 21 -8 3 -24
8 -35 9 -44 8 -105 36 -99 46 4 6 0 14 -7 19 -30 19 50 8 152 -20z m5966
-2540 c-6 -2 -13 1 -15 8 -2 6 -10 11 -18 11 -8 0 -14 7 -14 15 0 8 -4 15 -10
15 -5 0 -10 7 -10 15 0 8 -4 15 -9 15 -10 0 -3 -39 11 -57 5 -7 5 -14 -2 -18
-5 -3 -10 1 -10 10 0 9 -5 13 -10 10 -21 -13 -70 6 -70 26 0 15 -8 19 -42 21
l-43 1 43 4 c53 5 55 23 2 23 -22 0 -40 5 -40 10 0 6 9 10 20 10 25 0 27 20 3
21 -10 0 -1 6 20 12 22 7 37 14 35 17 -1 3 36 -33 83 -80 48 -47 82 -87 76
-89z"/>
<path d="M29610 13754 c-25 -2 -137 -8 -250 -14 -359 -19 -1075 -78 -1341
-110 -90 -11 -295 -36 -456 -55 -349 -42 -600 -74 -943 -121 -140 -19 -372
-50 -515 -70 -143 -19 -276 -39 -295 -44 -19 -5 -192 -34 -385 -65 -651 -103
-1286 -228 -1680 -330 -318 -83 -1053 -317 -1390 -443 -966 -362 -1892 -865
-2434 -1320 -261 -219 -555 -537 -785 -847 -162 -218 -381 -551 -481 -730
-152 -273 -258 -489 -330 -670 -52 -132 -103 -319 -109 -405 -3 -30 -8 -66
-12 -79 -13 -44 12 -14 60 71 25 46 87 133 138 193 93 113 381 404 574 580 60
55 152 140 204 189 178 166 724 561 1140 824 74 47 158 99 185 117 526 334
1185 635 1965 897 1111 373 1886 538 3195 682 782 86 1189 119 1705 136 168 5
442 15 610 22 716 27 1761 4 2600 -57 384 -28 767 -79 1015 -135 71 -16 131
-27 133 -25 7 7 -138 166 -351 385 -308 317 -387 400 -556 580 -199 212 -364
380 -634 648 l-205 202 -163 -2 c-90 -1 -184 -3 -209 -4z"/>
<path d="M12746 13412 c-3 -5 31 -21 77 -35 45 -14 183 -57 307 -96 124 -38
317 -97 430 -131 113 -34 248 -75 300 -91 366 -115 919 -329 1255 -487 l130
-61 3011 -1 3012 -2 98 40 c55 22 183 76 286 121 452 195 1037 404 1568 561
96 28 254 77 350 108 l175 57 -1005 3 c-943 3 -1449 -1 -3550 -29 -968 -13
-3630 -7 -4315 10 -247 6 -817 15 -1265 21 -448 6 -825 13 -836 16 -12 3 -24
1 -28 -4z"/>
<path d="M7405 12098 c-271 -161 -779 -503 -1035 -698 -264 -201 -563 -414
-658 -469 -41 -24 -71 -45 -68 -48 3 -3 42 2 88 11 46 8 173 25 283 36 283 29
505 57 915 115 211 30 577 78 1370 180 429 55 802 69 1680 62 793 -6 890 -12
1790 -113 774 -86 1073 -136 1875 -314 546 -121 819 -198 1320 -373 558 -196
986 -362 1187 -463 155 -77 636 -333 748 -397 222 -127 478 -302 593 -407 46
-42 65 -53 91 -55 14 -1 0 17 -45 59 -66 63 -140 119 -444 337 -93 67 -210
152 -260 189 -286 212 -911 598 -1213 749 -170 85 -558 265 -697 323 -658 275
-909 366 -1438 523 -517 154 -773 215 -1402 334 -541 103 -709 133 -990 175
-456 69 -555 81 -1005 121 -1034 92 -1611 127 -2315 140 l-330 6 -40 -23z"/>
<path d="M26480 11559 c-684 -26 -888 -40 -1425 -99 -470 -53 -554 -64 -840
-111 -799 -133 -1236 -233 -1870 -430 -291 -91 -946 -323 -1230 -436 -224 -89
-556 -248 -745 -358 -125 -72 -426 -269 -460 -302 -8 -8 37 12 100 44 123 63
408 179 581 237 191 63 687 195 1019 270 438 99 1246 251 1570 295 216 30 476
52 845 73 287 16 1326 16 1580 -1 736 -47 1347 -155 2200 -386 318 -87 838
-215 1255 -309 138 -31 247 -60 363 -98 36 -11 113 -88 88 -88 -6 0 -45 11
-88 25 -440 144 -2019 468 -2653 545 -91 11 -183 22 -205 25 -80 10 -333 34
-460 44 -122 10 -187 14 -570 41 -340 24 -752 41 -1105 47 -537 8 -926 -14
-1375 -78 -1173 -167 -2394 -453 -3066 -719 -156 -62 -392 -177 -486 -236
-202 -128 -463 -340 -713 -579 -52 -50 -147 -140 -210 -200 -183 -174 -351
-354 -308 -329 9 5 70 57 135 115 271 242 372 309 661 435 354 155 735 269
1152 343 512 91 879 121 1520 121 509 0 1370 -47 1855 -101 948 -105 2734
-359 3905 -555 1054 -176 1517 -255 1690 -288 428 -82 1444 -288 1548 -314 61
-15 112 -25 112 -21 0 4 -24 38 -53 75 -30 38 -125 170 -212 294 -87 124 -225
313 -305 420 -80 107 -162 218 -181 245 -35 49 -281 387 -572 785 -83 113
-290 390 -462 615 -405 534 -600 796 -644 866 l-36 57 -70 6 c-90 7 -1249 27
-1465 25 -91 -1 -257 -6 -370 -10z"/>
<path d="M8820 11030 c-345 -6 -319 -1 -429 -95 -91 -79 -489 -479 -627 -630
-60 -66 -181 -197 -269 -290 -228 -243 -410 -438 -490 -525 -37 -41 -98 -106
-134 -145 -37 -38 -120 -131 -186 -205 -66 -74 -122 -137 -125 -140 -3 -3 -58
-63 -122 -135 -120 -135 -265 -279 -308 -307 -52 -33 -79 -35 545 42 360 45
761 106 1120 170 891 158 1878 312 2760 430 127 17 464 64 750 105 1000 143
1688 217 2390 255 306 17 1441 25 1645 11 424 -28 782 -87 1206 -196 380 -98
624 -185 752 -268 64 -41 253 -188 290 -225 56 -55 184 -162 195 -162 17 0 47
-36 39 -46 -4 -4 -1 -4 6 0 6 4 12 4 12 -1 0 -10 55 -73 64 -73 27 0 -183 231
-301 332 -359 309 -873 622 -1383 843 -379 164 -955 357 -1525 509 -290 78
-908 211 -1580 342 -630 122 -2033 301 -2935 375 -333 27 -848 38 -1360 29z"/>
<path d="M13925 8624 c-192 -7 -408 -17 -480 -23 -71 -6 -211 -16 -310 -21
-99 -5 -202 -13 -230 -19 -27 -5 -110 -12 -183 -16 -73 -3 -228 -15 -345 -25
-117 -11 -369 -31 -561 -45 -192 -14 -358 -30 -369 -36 -12 -7 -43 -9 -78 -5
-32 4 -115 2 -186 -4 -288 -24 -1311 -129 -1658 -169 -93 -11 -231 -28 -305
-36 -74 -9 -324 -36 -555 -61 -438 -48 -634 -69 -945 -104 -102 -11 -268 -29
-370 -40 -279 -30 -541 -60 -564 -65 -25 -6 -494 -58 -735 -81 -126 -13 -178
-14 -191 -7 -20 13 -24 11 -131 -63 -314 -217 -730 -412 -1446 -679 -373 -140
-533 -217 -533 -258 0 -7 5 -19 10 -27 21 -33 431 -5 950 65 436 58 771 91
1220 120 462 30 1112 84 1850 155 678 65 827 77 1835 145 204 14 503 34 665
45 162 11 576 36 920 55 344 19 830 48 1080 65 250 16 608 36 795 45 187 8
423 20 525 25 102 5 478 14 835 20 358 6 830 15 1050 20 220 5 536 10 702 10
l302 0 38 -56 c151 -221 252 -334 418 -467 407 -327 806 -455 1445 -464 140
-2 296 -5 345 -8 100 -4 99 10 -2 23 l-58 8 65 13 c36 7 85 20 110 28 98 33
374 179 475 251 179 129 515 453 558 537 l25 50 533 -12 c762 -16 1298 -32
1510 -43 187 -10 945 -41 1454 -60 154 -6 350 -15 435 -20 85 -5 207 -12 270
-15 321 -16 1234 -67 1440 -80 243 -16 484 -36 1280 -105 256 -22 519 -45 585
-50 197 -16 674 -60 760 -70 44 -5 215 -21 380 -35 165 -14 372 -32 460 -40
88 -8 297 -26 465 -40 579 -49 1205 -106 1330 -121 69 -8 211 -31 316 -50 178
-32 383 -56 1254 -149 425 -45 654 -60 740 -46 35 6 68 15 73 20 10 10 -20 51
-38 51 -6 0 -15 8 -22 18 -16 27 -104 67 -113 52 -5 -9 -19 -6 -50 10 -23 12
-83 34 -133 50 -127 39 -169 57 -263 111 -143 82 -503 265 -684 347 -96 44
-240 111 -320 150 -464 223 -569 255 -1210 371 -641 116 -1145 187 -1535 215
-393 29 -734 63 -1230 121 -115 13 -336 38 -490 55 -154 16 -354 39 -445 50
-91 11 -250 29 -355 40 -104 11 -253 29 -330 40 -360 49 -512 66 -1095 125
-565 56 -788 72 -1180 85 -173 6 -479 21 -680 35 -837 58 -1281 75 -1930 75
-932 0 -1443 -71 -2105 -292 -263 -87 -360 -132 -606 -279 -26 -15 -69 -35
-97 -45 -67 -24 -117 -12 -227 55 -112 68 -244 133 -255 126 -6 -4 -10 -1 -10
5 0 5 -17 18 -37 26 -21 9 -47 21 -57 27 -11 5 -58 23 -105 39 -313 106 -675
178 -1241 248 -129 16 -280 35 -335 44 -55 8 -158 19 -230 25 -71 6 -175 16
-230 21 -325 33 -970 39 -1630 14z m875 -88 c0 -10 14 -16 43 -19 23 -3 -50
-4 -163 -3 -260 1 -1207 -21 -1445 -35 -99 -6 -268 -14 -375 -19 -107 -5 -233
-14 -280 -21 -47 -7 -146 -13 -220 -14 -74 0 -143 -4 -153 -9 -9 -4 -28 -5
-42 -2 -14 4 -25 2 -25 -3 0 -8 -89 -9 -170 -1 -30 3 308 34 765 70 66 5 199
17 295 25 96 9 277 16 403 16 125 1 225 4 223 7 -2 4 237 7 532 8 296 1 517
-2 492 -6 -43 -7 -42 -7 23 -8 54 -2 67 1 67 13 0 8 7 15 15 15 8 0 15 -6 15
-14z"/>
<path d="M10185 5794 c-16 -2 -79 -9 -140 -14 -60 -6 -144 -16 -185 -21 l-75
-11 3 -166 c2 -92 6 -358 11 -592 4 -234 7 -426 6 -427 0 -1 -29 25 -64 58
-96 93 -208 137 -401 158 -265 28 -549 -84 -756 -301 -178 -185 -269 -375
-315 -657 -51 -309 14 -732 154 -994 121 -228 340 -407 572 -468 113 -30 337
-31 445 -1 92 25 215 91 340 183 52 38 97 69 101 69 7 0 79 -199 79 -218 0
-27 47 -31 351 -32 l314 -2 -4 254 c-2 139 -7 258 -12 264 -5 6 -13 478 -18
1050 -6 571 -13 1218 -17 1437 l-7 398 -25 19 c-22 18 -39 20 -176 19 -83 -1
-164 -4 -181 -5z m-599 -1629 c62 -30 144 -116 180 -187 55 -108 67 -184 68
-418 0 -172 -3 -229 -17 -283 -36 -143 -119 -256 -231 -315 -44 -23 -63 -27
-141 -27 -82 0 -97 3 -157 33 -122 60 -222 200 -264 372 -28 111 -25 355 4
465 54 197 172 340 314 380 75 21 177 13 244 -20z"/>
<path d="M20164 4898 c3 -497 6 -1271 6 -1720 l0 -818 353 0 354 0 -5 789 -5
789 26 45 c32 55 86 98 164 134 48 22 72 27 139 26 69 0 88 -4 133 -28 77 -42
129 -116 158 -220 18 -66 32 -572 33 -1127 l0 -428 334 0 c184 0 341 3 350 6
14 5 16 55 15 463 0 251 -4 647 -9 881 -9 467 -19 547 -76 663 -84 173 -286
326 -477 362 -281 53 -500 -19 -712 -234 -44 -45 -83 -81 -87 -81 -5 0 -8 136
-8 303 0 166 -3 481 -7 700 l-6 397 -340 0 -339 0 6 -902z"/>
<path d="M25268 5763 l-148 -4 0 -1694 0 -1695 118 0 c64 0 235 3 379 7 l263
6 2 731 3 731 34 70 c71 146 194 232 315 223 166 -14 290 -141 317 -326 7 -43
8 -315 3 -761 l-7 -694 174 6 c96 4 261 7 367 7 l192 0 0 748 c0 411 -5 810
-10 887 -14 213 -54 340 -137 442 -164 203 -379 303 -651 303 -196 0 -333 -53
-517 -200 -55 -44 -103 -80 -107 -80 -19 0 -21 93 -14 657 l7 602 -32 17 c-35
18 -255 25 -551 17z"/>
<path d="M33903 5731 c-220 -5 -295 -9 -305 -19 -18 -17 -17 29 -28 -1772 -7
-1222 -6 -1576 3 -1582 13 -8 677 -11 677 -3 0 2 -11 69 -25 147 -14 78 -25
148 -25 155 0 24 25 13 49 -23 64 -93 214 -196 356 -246 218 -75 505 -53 732
57 301 144 459 370 528 752 36 201 29 513 -17 736 -73 358 -248 611 -519 747
-236 119 -611 84 -825 -76 -27 -20 -74 -63 -105 -97 l-55 -61 -14 530 c-7 291
-15 581 -19 644 l-6 115 -55 1 c-30 0 -186 -2 -347 -5z m980 -1613 c33 -16 78
-48 106 -78 102 -106 149 -243 158 -455 12 -299 -87 -530 -265 -617 -61 -30
-74 -33 -157 -32 -118 1 -184 26 -265 101 -72 66 -125 166 -140 263 -5 36 -10
130 -10 210 0 257 39 394 146 510 95 102 162 131 289 127 62 -2 93 -8 138 -29z"/>
<path d="M32732 5669 c-126 -21 -248 -111 -298 -222 -36 -80 -45 -217 -20
-294 51 -153 197 -231 416 -221 156 7 251 55 323 162 46 67 57 105 57 188 0
82 -25 160 -75 236 -75 112 -245 176 -403 151z"/>
<path d="M17524 5642 c-143 -51 -244 -188 -244 -331 0 -99 47 -217 113 -283
107 -108 315 -144 461 -80 70 31 158 121 192 195 40 86 41 197 3 277 -38 81
-118 163 -197 202 -60 30 -76 33 -172 36 -81 2 -116 -2 -156 -16z m33 -69
c-11 -3 -16 -11 -13 -19 3 -8 -1 -14 -9 -14 -8 0 -15 -5 -15 -11 0 -7 11 -9
30 -5 24 4 30 2 31 -12 0 -14 2 -14 9 3 8 18 9 19 9 1 1 -10 12 -27 26 -38 14
-11 25 -24 25 -29 0 -5 -11 -9 -25 -9 -14 0 -25 -4 -25 -9 0 -5 -9 -11 -20
-14 -11 -3 -20 -10 -20 -17 0 -7 9 -14 20 -17 30 -8 24 -23 -10 -23 -24 0 -31
-5 -36 -27 -4 -14 -2 -34 5 -44 6 -10 11 -22 11 -26 0 -5 -5 -1 -10 7 -5 8
-10 10 -10 4 0 -7 -12 -14 -26 -17 -18 -3 -24 -1 -20 9 3 8 2 14 -3 14 -15 0
-21 -13 -10 -26 7 -9 6 -20 -6 -38 -20 -31 -39 -34 -32 -6 3 13 0 20 -9 20
-19 0 -18 -8 6 -55 11 -22 20 -35 20 -30 0 5 6 2 13 -7 6 -9 21 -18 32 -21 14
-3 11 -5 -10 -6 -28 -2 -29 -2 -11 -16 11 -8 16 -18 12 -22 -4 -4 -10 -3 -14
3 -10 14 -42 25 -42 14 0 -5 9 -12 20 -15 11 -3 25 -15 30 -26 6 -10 16 -19
22 -19 7 0 6 5 -2 15 -10 12 -9 15 4 15 10 0 14 -4 11 -10 -3 -5 0 -10 7 -11
11 0 11 -2 0 -6 -20 -8 38 -35 62 -29 14 4 16 2 8 -6 -8 -8 -23 -8 -53 1 -50
15 -154 114 -145 138 4 9 2 11 -6 7 -7 -5 -9 0 -6 14 4 12 2 20 -2 17 -4 -3
-13 9 -19 27 -14 39 -14 51 -1 43 8 -5 9 10 4 47 -8 64 -18 81 -12 21 2 -23
-1 -39 -6 -36 -14 9 3 124 25 168 25 46 58 82 95 102 36 18 40 16 19 -7 -10
-11 -14 -20 -9 -20 17 0 35 17 39 36 2 10 4 20 4 22 1 1 13 1 29 1 18 -1 21
-3 9 -6z"/>
<path d="M2915 5634 c-460 -62 -786 -274 -942 -612 -159 -342 -84 -754 181
-992 126 -114 258 -187 569 -316 100 -42 220 -96 267 -120 204 -105 280 -234
216 -369 -39 -83 -115 -141 -246 -190 -66 -25 -92 -28 -225 -32 -133 -4 -164
-2 -275 21 -138 28 -328 87 -440 136 -39 17 -74 30 -76 27 -2 -2 -27 -60 -55
-128 -28 -68 -78 -182 -111 -254 -33 -71 -60 -136 -61 -144 -2 -16 133 -97
242 -145 154 -68 375 -130 568 -158 128 -18 425 -16 548 6 428 73 732 327 831
693 24 86 27 117 28 258 0 178 -12 264 -56 400 -34 107 -75 172 -166 264 -119
122 -250 193 -586 320 -230 87 -296 118 -373 175 -146 107 -183 276 -83 376
82 82 233 122 460 122 138 0 267 -20 458 -72 40 -11 78 -20 86 -20 11 0 129
236 254 509 l25 54 -24 18 c-13 10 -71 37 -128 59 -282 110 -608 152 -886 114z"/>
<path d="M13440 5609 c-166 -7 -245 -15 -260 -24 -4 -3 19 -89 52 -192 58
-183 160 -542 192 -673 8 -36 40 -171 71 -300 30 -129 62 -262 70 -295 8 -33
35 -157 61 -275 72 -342 91 -426 123 -570 60 -271 157 -774 168 -874 7 -65 10
-70 37 -79 17 -6 167 -7 391 -2 l364 7 6 77 c15 168 150 912 220 1211 41 175
111 503 155 720 61 304 68 323 115 332 17 3 21 -6 32 -62 17 -92 151 -1036
208 -1470 57 -426 107 -695 141 -753 14 -25 117 -34 465 -42 l287 -7 17 74 c9
40 36 172 61 293 68 338 220 963 375 1540 39 143 86 319 104 390 19 72 46 173
60 225 36 135 161 629 168 668 l7 32 -365 0 -365 0 -4 -22 c-2 -13 -21 -142
-41 -288 -43 -309 -119 -767 -210 -1275 -36 -198 -80 -448 -98 -555 -25 -152
-36 -195 -48 -198 -13 -2 -19 19 -34 115 -89 587 -344 1971 -406 2206 l-10 37
-283 0 c-156 0 -323 -3 -373 -6 l-89 -7 -27 -131 c-41 -202 -81 -390 -167
-781 -111 -507 -173 -822 -244 -1233 -24 -139 -46 -256 -50 -259 -14 -14 -24
21 -30 111 -23 306 -73 708 -141 1141 -43 265 -57 352 -104 610 -10 61 -39
219 -62 353 l-43 242 -165 -2 c-92 0 -240 -4 -331 -9z m453 -116 c41 -201 57
-299 52 -332 -3 -21 -2 -29 3 -19 4 12 21 -54 45 -185 42 -223 50 -269 41
-248 -5 11 -8 11 -16 0 -6 -10 -8 -1 -6 26 3 55 -12 165 -23 165 -5 0 -9 11
-9 24 0 13 -4 26 -10 28 -5 2 -12 19 -15 38 l-5 35 10 -32 c6 -18 13 -33 16
-33 9 0 -7 63 -20 79 -9 12 -8 13 3 6 11 -6 13 -4 8 9 -4 10 -7 24 -7 31 0 8
-7 21 -16 30 -11 10 -15 27 -12 50 2 18 0 31 -4 29 -4 -3 -8 -21 -8 -40 0 -24
-5 -34 -15 -34 -11 0 -15 11 -15 40 0 22 -4 40 -9 40 -4 0 -12 28 -16 63 -16
131 -22 164 -24 130 -1 -23 -6 -33 -17 -33 -14 0 -16 8 -12 49 3 28 1 56 -3
63 -7 10 -9 10 -10 1 -1 -7 -3 -17 -4 -23 -1 -5 -3 -46 -4 -90 l-1 -80 -55 0
c-42 0 -55 3 -55 15 0 11 -11 15 -40 15 l-40 0 0 -55 0 -55 -50 0 -50 0 0 40
c0 36 -2 40 -25 40 -22 0 -25 -4 -25 -40 0 -22 5 -40 10 -40 6 0 10 -18 10
-40 0 -22 5 -40 10 -40 6 0 10 -18 10 -40 0 -29 4 -40 15 -40 11 0 15 -11 15
-40 0 -22 5 -40 10 -40 6 0 10 -18 10 -40 0 -29 4 -40 15 -40 11 0 15 -10 14
-37 l-2 -38 -7 35 -7 35 -2 -37 c-1 -32 2 -38 20 -38 19 0 20 -4 14 -40 -4
-26 -3 -40 4 -40 6 0 11 -13 11 -28 0 -20 -7 -33 -22 -41 -21 -10 -22 -11 -2
-6 17 5 21 1 19 -17 -1 -13 0 -15 2 -6 3 11 13 17 26 16 19 -2 22 -7 19 -40
-2 -21 -8 -38 -13 -38 -5 0 -9 -18 -9 -40 0 -36 3 -40 25 -40 22 0 25 4 27 43
l1 42 4 -42 c3 -29 9 -43 19 -43 10 0 14 -12 14 -40 0 -29 -4 -40 -15 -40 -11
0 -15 12 -16 43 -2 33 -3 36 -6 12 -3 -16 -2 -53 2 -82 6 -48 9 -53 31 -53 21
0 24 -4 24 -40 0 -22 -4 -40 -9 -40 -5 0 -11 -18 -13 -40 -2 -28 0 -40 9 -40
8 0 13 -12 12 -32 l-1 -33 -8 30 c-8 30 -8 30 -9 -7 0 -21 4 -38 9 -38 6 0 10
-33 10 -80 0 -79 0 -80 -25 -80 -25 0 -30 10 -26 53 1 9 -3 17 -8 17 -6 0 -12
-10 -12 -22 -1 -13 -5 11 -10 52 -4 41 -13 91 -18 110 -47 165 -49 176 -41
220 4 25 8 37 9 27 1 -21 21 -13 21 9 0 8 -9 14 -20 14 -11 0 -20 7 -20 15 0
8 -5 15 -11 15 -7 0 -9 -10 -5 -27 4 -19 3 -23 -3 -13 -4 8 -11 32 -14 54 -6
36 -5 37 9 20 14 -18 15 -17 9 11 -8 37 -14 43 -24 27 -9 -15 -31 89 -36 173
-2 33 -8 71 -14 85 -11 23 -11 22 -6 -10 15 -84 13 -100 -3 -40 -9 36 -14 67
-10 68 5 2 8 17 8 33 0 16 5 29 11 29 7 0 9 -11 6 -30 -4 -17 -2 -30 3 -30 6
0 11 -17 12 -37 l1 -38 4 33 c3 18 -1 56 -7 84 -8 40 -8 53 2 59 9 6 9 15 -4
41 l-17 33 -1 -30 c-1 -42 -26 -130 -32 -119 -4 5 -9 27 -13 49 -4 22 -13 56
-20 76 -8 20 -11 40 -8 43 4 3 1 16 -4 29 -19 37 -22 68 -11 96 10 24 11 25
18 6 5 -11 9 -31 9 -45 1 -20 -1 -22 -9 -10 -11 17 -13 9 -4 -15 5 -13 8 -14
15 -3 5 8 8 -2 6 -27 -1 -28 2 -40 13 -42 12 -3 15 5 12 37 -2 22 -8 40 -13
40 -5 0 -9 10 -9 21 0 12 -9 40 -19 63 -11 23 -23 50 -26 61 -5 14 -9 16 -12
7 -3 -8 0 -24 7 -37 9 -17 9 -28 1 -41 -10 -18 -10 -17 -11 4 0 12 -4 30 -10
40 -22 40 -58 185 -55 220 4 35 4 35 -4 7 -5 -16 -9 -28 -10 -25 0 3 -10 30
-22 60 -11 30 -26 71 -34 91 l-13 36 90 1 c49 1 93 4 99 7 5 4 14 3 21 -1 8
-5 6 -10 -8 -16 -12 -5 -5 -6 21 -3 22 3 60 7 85 9 25 2 30 1 13 -1 -18 -2
-33 -8 -33 -13 0 -4 17 -6 39 -3 23 3 41 1 45 -6 4 -6 24 -10 44 -10 l37 2
-35 7 c-33 7 -32 8 20 10 l55 3 -65 7 -65 7 50 3 50 3 -50 7 c-35 5 -8 7 91 8
l141 2 16 -77z m1824 -1011 c15 -86 27 -176 27 -199 -1 -24 2 -40 7 -37 5 3 9
-2 9 -10 0 -9 -4 -16 -9 -16 -10 0 -31 -76 -32 -117 0 -16 -3 -21 -6 -13 -3 8
-13 23 -21 33 -14 15 -14 21 -3 39 11 17 11 25 -1 46 -8 16 -9 27 -3 29 10 3
8 28 -11 204 -4 34 -2 71 5 92 14 42 5 107 -15 107 -17 0 -17 5 -2 33 11 22
12 22 19 -6 4 -16 20 -99 36 -185z m133 -752 c18 -93 18 -106 5 -116 -9 -7
-15 -27 -15 -53 0 -72 -18 -44 -25 39 -4 44 -11 80 -15 80 -5 0 -12 20 -16 45
-4 28 -10 42 -17 38 -7 -4 -8 0 -4 11 11 28 -3 66 -24 66 -15 0 -19 7 -19 40
0 22 -4 40 -10 40 -19 0 -11 69 9 79 10 6 20 8 23 6 2 -2 4 4 5 13 1 9 4 27 8
40 6 16 3 22 -9 22 -10 0 -16 8 -16 23 1 20 2 20 11 4 14 -24 29 -12 30 26 0
18 14 -42 30 -133 15 -91 37 -212 49 -270z"/>
<path d="M23760 5610 c-165 -17 -300 -55 -435 -123 -257 -128 -436 -319 -525
-559 -60 -164 -67 -402 -16 -553 93 -276 285 -440 772 -661 91 -41 203 -93
247 -115 174 -88 270 -192 284 -308 12 -101 -40 -182 -153 -237 -74 -37 -80
-38 -204 -42 -217 -7 -456 45 -750 163 -52 21 -105 45 -118 53 -12 8 -24 13
-26 11 -3 -2 -31 -63 -64 -136 -33 -72 -94 -196 -137 -275 -55 -103 -74 -147
-68 -158 14 -22 175 -101 291 -143 211 -76 525 -145 747 -166 136 -12 329 0
440 29 91 23 234 89 325 149 281 187 448 491 450 817 1 258 -100 502 -283 687
-134 135 -276 212 -587 317 -220 74 -296 109 -360 167 -60 54 -80 96 -80 169
0 106 71 199 189 246 50 20 72 23 216 22 141 0 172 -3 261 -27 112 -30 261
-84 270 -98 3 -5 14 -9 24 -9 22 0 26 8 166 327 46 106 84 199 84 207 0 8 -60
44 -142 85 -263 130 -556 188 -818 161z"/>
<path d="M19265 5422 c-42 -26 -175 -72 -409 -141 -109 -33 -203 -66 -207 -73
-5 -7 -9 -80 -9 -163 0 -82 -3 -187 -6 -231 l-7 -82 -163 -7 -164 -7 0 -92 c0
-50 3 -183 7 -294 l6 -204 163 4 162 3 5 -575 c5 -620 10 -695 61 -840 32 -94
70 -155 131 -215 127 -124 337 -181 576 -155 107 11 418 76 432 89 4 4 1 117
-8 251 -9 133 -13 256 -9 273 6 27 4 29 -17 24 -13 -3 -53 -17 -89 -32 -53
-23 -74 -27 -125 -23 -141 12 -250 118 -284 276 -7 35 -11 205 -11 492 l0 440
260 0 259 0 3 283 c2 155 2 285 0 290 -2 4 -118 7 -258 7 l-254 0 0 360 c0
198 -3 360 -7 360 -5 0 -21 -8 -38 -18z"/>
<path d="M4698 5296 c-175 -45 -322 -86 -327 -91 -5 -6 -11 -123 -13 -262 -2
-138 -6 -254 -9 -257 -3 -4 -68 -11 -145 -17 -76 -6 -141 -13 -144 -15 -8 -8
-12 -493 -5 -532 l6 -34 62 6 c34 3 95 7 135 8 l73 3 -1 -505 c-1 -631 10
-739 90 -888 124 -233 334 -355 635 -369 130 -6 206 2 426 43 l141 27 -6 51
c-20 157 -36 341 -36 415 0 75 -2 82 -17 76 -229 -88 -416 -34 -480 138 -8 23
-12 176 -12 533 l-1 501 118 6 c64 4 180 10 258 13 l141 7 6 271 c3 149 4 273
2 275 -2 2 -118 -1 -257 -6 -139 -5 -254 -9 -255 -9 -1 1 -5 158 -9 349 l-7
347 -26 -1 c-14 -1 -169 -38 -343 -83z"/>
<path d="M30965 4749 c-236 -23 -510 -108 -705 -218 -41 -24 -79 -46 -83 -50
-4 -4 2 -19 13 -34 32 -40 92 -178 134 -304 21 -62 40 -113 42 -113 2 0 28 13
57 29 68 39 220 97 301 116 253 59 438 29 559 -91 49 -49 69 -96 71 -169 1
-37 -1 -40 -24 -37 -14 2 -88 4 -165 5 -292 2 -559 -70 -769 -207 -140 -91
-232 -189 -296 -316 -103 -205 -96 -515 16 -707 38 -67 157 -181 234 -226 123
-71 273 -102 454 -94 199 9 307 50 499 188 59 42 103 67 108 62 5 -5 14 -47
20 -94 5 -46 16 -90 24 -98 14 -15 62 -17 443 -25 l194 -3 -7 151 c-4 83 -10
459 -15 836 -8 630 -10 692 -29 778 -78 361 -419 606 -871 625 -63 3 -155 1
-205 -4z m393 -1491 c-4 -194 -8 -209 -76 -270 -93 -84 -211 -123 -300 -100
-92 25 -161 89 -183 172 -33 122 87 276 256 330 48 16 193 37 258 39 l49 1 -4
-172z"/>
<path d="M29099 4713 l-56 -4 -6 -82 c-4 -45 -7 -329 -8 -632 -1 -644 -5 -751
-37 -816 -71 -146 -220 -217 -368 -174 -47 13 -69 27 -109 68 -94 97 -89 53
-93 900 l-3 737 -367 -2 -367 -3 0 -835 c0 -881 2 -931 47 -1080 64 -210 259
-376 509 -431 79 -18 116 -20 229 -16 159 6 223 21 345 82 104 51 203 127 271
208 27 31 51 57 55 57 4 0 10 -62 14 -137 3 -76 8 -144 10 -151 4 -10 82 -12
367 -10 357 3 363 3 360 23 -2 11 -12 29 -22 40 -31 35 -40 62 -51 152 -7 54
-13 476 -16 1101 l-5 1012 -322 -2 c-176 -1 -346 -3 -377 -5z"/>
<path d="M5897 4704 c-10 -11 -8 -1390 3 -1601 14 -273 39 -383 114 -496 111
-168 277 -254 504 -265 215 -9 376 30 524 127 68 45 198 170 198 191 0 6 4 10
8 10 5 0 14 -39 20 -87 7 -49 18 -110 25 -138 l12 -50 338 2 c186 1 341 3 343
6 3 2 0 116 -7 252 -7 164 -10 551 -7 1142 l4 893 -317 0 c-174 0 -329 2 -345
5 -16 3 -34 2 -41 -2 -9 -6 -14 -178 -21 -673 -10 -711 -11 -720 -63 -822 -29
-58 -119 -150 -171 -175 -139 -69 -312 -19 -381 111 -22 41 -22 42 -25 809
l-3 767 -353 0 c-194 0 -356 -3 -359 -6z"/>
<path d="M12386 4698 c-2 -7 -70 -276 -150 -598 -148 -595 -189 -768 -201
-853 -8 -62 -21 -53 -28 20 -7 82 -60 263 -197 678 -131 397 -205 631 -215
685 -14 77 29 70 -412 70 -372 0 -395 -1 -388 -17 4 -10 33 -103 66 -208 70
-227 106 -328 197 -557 78 -193 94 -233 299 -713 281 -658 305 -741 249 -860
-54 -117 -220 -227 -548 -365 -88 -37 -93 -41 -90 -67 7 -68 124 -470 165
-566 l20 -49 46 7 c81 12 315 96 409 147 256 140 455 340 594 598 95 176 256
583 395 1000 58 173 136 399 173 501 90 243 203 567 300 859 43 129 81 242 84
250 6 14 -14 16 -146 18 -157 2 -472 17 -566 28 -38 4 -53 2 -56 -8z"/>
<path d="M32416 4495 c-4 -110 -6 -636 -4 -1169 2 -962 3 -968 23 -976 11 -4
90 -7 175 -5 85 1 256 3 379 3 l224 2 -8 78 c-4 42 -10 569 -14 1171 l-6 1094
-381 1 -382 1 -6 -200z"/>
<path d="M17375 3509 l0 -1142 170 6 c94 4 238 7 320 7 l150 0 3 1135 2 1135
-322 0 -323 0 0 -1141z m594 214 c-2 -823 -9 -1263 -19 -1068 -3 58 -4 62 -7
25 -3 -33 -7 -41 -15 -30 -8 12 -8 10 -3 -5 4 -11 8 -47 10 -80 2 -46 1 -50
-4 -19 l-6 40 -200 3 c-110 1 -201 7 -203 12 -2 5 -13 4 -25 -2 -17 -9 -23 -8
-34 7 -7 10 -13 21 -13 26 0 15 -19 8 -23 -9 -2 -10 -2 -7 0 7 2 14 6 41 9 60
l4 35 -15 -35 -15 -35 5 50 c2 28 5 457 6 955 0 498 3 917 6 933 l5 27 269 0
269 0 -1 -897z"/>
</g>
</svg>
